<?xml version="1.0" encoding="UTF-8" standalone="no"?>
<svg
   version="1.1"
   width="100"
   height="100"
   style="clip-rule:evenodd;fill-rule:evenodd;image-rendering:optimizeQuality;shape-rendering:geometricPrecision;text-rendering:geometricPrecision"
   id="svg17"
   sodipodi:docname="logo.svg"
   inkscape:version="1.3.2 (091e20e, 2023-11-25, custom)"
   xmlns:inkscape="http://www.inkscape.org/namespaces/inkscape"
   xmlns:sodipodi="http://sodipodi.sourceforge.net/DTD/sodipodi-0.dtd"
   xmlns="http://www.w3.org/2000/svg"
   xmlns:svg="http://www.w3.org/2000/svg">
  <defs
     id="defs17" />
  <sodipodi:namedview
     id="namedview17"
     pagecolor="#ffffff"
     bordercolor="#000000"
     borderopacity="0.25"
     inkscape:showpageshadow="2"
     inkscape:pageopacity="0.0"
     inkscape:pagecheckerboard="0"
     inkscape:deskcolor="#d1d1d1"
     inkscape:zoom="5.6568543"
     inkscape:cx="41.7193"
     inkscape:cy="50.646523"
     inkscape:window-width="1920"
     inkscape:window-height="1009"
     inkscape:window-x="-8"
     inkscape:window-y="-8"
     inkscape:window-maximized="1"
     inkscape:current-layer="svg17" />
  <g
     id="g2"
     transform="scale(0.46296296,0.46728972)">
    <path
       style="opacity:1;stroke-width:1.16195"
       fill="#c3c5ea"
       d="M 59.545945,0.0718505 C 65.785076,-0.12010667 72.01218,0.0725443 78.227024,0.6500347 109.36021,5.2752771 140.49573,9.9007508 171.63242,14.526456 198.66045,22.595595 213.44886,40.519306 216,68.297588 211.51537,102.64751 206.65129,136.9535 201.4054,171.21437 192.21197,199.20542 172.75213,213.46808 143.02703,214 111.63113,210.21869 80.301558,205.78631 49.037836,200.70177 18.312713,193.39814 1.9667675,174.12496 0,142.88334 4.0564798,108.20734 9.3105338,73.709276 15.762163,39.388378 23.937353,19.144413 38.531947,6.0389429 59.545945,0.0718505 Z"
       id="path2" />
  </g>
  <g
     id="g3"
     style="fill:#4348bd;fill-opacity:1"
     transform="matrix(0.54054051,0,0,0.54035907,-12.162162,-9.4227084)">
    <path
       style="opacity:1;fill:#4348bd;fill-opacity:1"
       fill="#4348bd"
       d="m 70.5,30.5 c 29.0019,-0.1666 58.002,0 87,0.5 19.14,4.1483 31.306,15.6483 36.5,34.5 0.667,29.3333 0.667,58.667 0,88 -4.5,19.167 -16.333,31 -35.5,35.5 -29.333,0.667 -58.6667,0.667 -88,0 -18.8517,-5.194 -30.3517,-17.36 -34.5,-36.5 -0.6667,-29 -0.6667,-58 0,-87 5.6839,-17.5165 17.1839,-29.1832 34.5,-35 z"
       id="path3" />
  </g>
  <ellipse
     style="clip-rule:evenodd;fill:#ffffff;fill-opacity:1;fill-rule:evenodd;stroke-width:1.21158;image-rendering:optimizeQuality;shape-rendering:geometricPrecision;text-rendering:geometricPrecision"
     id="path18-4-6"
     cx="38.194443"
     cy="36.214954"
     rx="5.7870369"
     ry="5.8411217" />
  <ellipse
     style="clip-rule:evenodd;fill:#ffffff;fill-opacity:1;fill-rule:evenodd;stroke-width:0.339242;image-rendering:optimizeQuality;shape-rendering:geometricPrecision;text-rendering:geometricPrecision"
     id="path18-4-5-7-1-6-6"
     cx="65.277779"
     cy="39.719627"
     rx="1.6203704"
     ry="1.635514" />
  <ellipse
     style="clip-rule:evenodd;fill:#ffffff;fill-opacity:1;fill-rule:evenodd;stroke-width:0.339242;image-rendering:optimizeQuality;shape-rendering:geometricPrecision;text-rendering:geometricPrecision"
     id="path18-4-5-7-1-6-6-6-6"
     cx="59.027779"
     cy="36.214954"
     rx="1.6203704"
     ry="1.635514" />
  <ellipse
     style="clip-rule:evenodd;fill:#ffffff;fill-opacity:1;fill-rule:evenodd;stroke-width:0.339242;image-rendering:optimizeQuality;shape-rendering:geometricPrecision;text-rendering:geometricPrecision"
     id="path18-4-5-7-1-6-6-6-6-3"
     cx="47.916668"
     cy="36.214954"
     rx="1.6203704"
     ry="1.635514" />
  <ellipse
     style="clip-rule:evenodd;fill:#ffffff;fill-opacity:1;fill-rule:evenodd;stroke-width:0.339242;image-rendering:optimizeQuality;shape-rendering:geometricPrecision;text-rendering:geometricPrecision"
     id="path18-4-5-7-1-6-6-6-6-3-6"
     cx="53.472221"
     cy="36.214954"
     rx="1.6203704"
     ry="1.635514" />
  <g
     id="g16" />
  <ellipse
     style="clip-rule:evenodd;fill:#ffffff;fill-opacity:1;fill-rule:evenodd;stroke-width:1.21158;image-rendering:optimizeQuality;shape-rendering:geometricPrecision;text-rendering:geometricPrecision"
     id="path18-4"
     cx="38.194443"
     cy="66.588783"
     rx="5.7870369"
     ry="5.8411217" />
  <ellipse
     style="fill:#4348bd;fill-opacity:1;stroke-width:0.726946"
     id="path18"
     cx="38.194443"
     cy="66.588783"
     rx="3.4722223"
     ry="3.504673" />
  <ellipse
     style="clip-rule:evenodd;fill:#4348bd;fill-opacity:1;fill-rule:evenodd;stroke-width:0.726946;image-rendering:optimizeQuality;shape-rendering:geometricPrecision;text-rendering:geometricPrecision"
     id="path18-9"
     cx="38.194443"
     cy="36.214954"
     rx="3.4722223"
     ry="3.504673" />
  <ellipse
     style="clip-rule:evenodd;fill:#ffffff;fill-opacity:1;fill-rule:evenodd;stroke-width:1.21158;image-rendering:optimizeQuality;shape-rendering:geometricPrecision;text-rendering:geometricPrecision"
     id="path18-4-5"
     cx="68.287041"
     cy="66.588783"
     rx="5.7870369"
     ry="5.8411217" />
  <ellipse
     style="clip-rule:evenodd;fill:#ffffff;fill-opacity:1;fill-rule:evenodd;stroke-width:0.339242;image-rendering:optimizeQuality;shape-rendering:geometricPrecision;text-rendering:geometricPrecision"
     id="path18-4-5-7"
     cx="68.287041"
     cy="56.7757"
     rx="1.6203704"
     ry="1.635514" />
  <ellipse
     style="clip-rule:evenodd;fill:#ffffff;fill-opacity:1;fill-rule:evenodd;stroke-width:0.339242;image-rendering:optimizeQuality;shape-rendering:geometricPrecision;text-rendering:geometricPrecision"
     id="path18-4-5-7-1"
     cx="68.287041"
     cy="51.168224"
     rx="1.6203704"
     ry="1.635514" />
  <ellipse
     style="clip-rule:evenodd;fill:#ffffff;fill-opacity:1;fill-rule:evenodd;stroke-width:0.339242;image-rendering:optimizeQuality;shape-rendering:geometricPrecision;text-rendering:geometricPrecision"
     id="path18-4-5-7-1-6"
     cx="68.287041"
     cy="45.560749"
     rx="1.6203704"
     ry="1.635514" />
  <ellipse
     style="clip-rule:evenodd;fill:#4348bd;fill-opacity:1;fill-rule:evenodd;stroke-width:0.726946;image-rendering:optimizeQuality;shape-rendering:geometricPrecision;text-rendering:geometricPrecision"
     id="path18-5"
     cx="68.287041"
     cy="66.588783"
     rx="3.4722223"
     ry="3.504673" />
  <rect
     style="fill:#ffffff;fill-opacity:1;stroke-width:0.143703"
     id="rect18"
     width="3.2407408"
     height="19.169205"
     x="36.574074"
     y="41.82243" />
  <rect
     style="clip-rule:evenodd;fill:#4348bd;fill-opacity:1;fill-rule:evenodd;stroke-width:0.0949318;image-rendering:optimizeQuality;shape-rendering:geometricPrecision;text-rendering:geometricPrecision"
     id="rect18-9"
     width="1.1516204"
     height="23.541155"
     x="37.634258"
     y="39.628555" />
</svg>
